<svg width="202" height="202" viewBox="0 0 202 202" fill="none" xmlns="http://www.w3.org/2000/svg">
<path d="M183.712 44.6571L173.082 54.8561C181.927 68.3659 187.07 84.5179 187.07 101.871C187.07 149.337 148.591 187.816 101.125 187.816C53.6587 187.816 15.1797 149.337 15.1797 101.871C15.1797 54.4048 53.6587 15.9258 101.125 15.9258C118.319 15.9258 134.333 20.9746 147.767 29.6707L157.966 18.7865" stroke="black" stroke-width="2"/>
<path d="M173.139 54.8557L183.628 44.6567C194.59 60.7012 201 80.102 201 101C201 156.228 156.228 201 101 201C45.7715 201 1 156.228 1 101C1 45.7715 45.7715 1 101 1C122.169 1 141.801 7.5776 157.965 18.8005L147.766 29.607" stroke="black" stroke-width="2"/>
</svg>
