<svg width="168" height="131" viewBox="0 0 168 131" fill="none" xmlns="http://www.w3.org/2000/svg">
<path d="M1.07031 54.8804L1.07031 76.2629C1.07031 82.3015 4.07599 87.9549 9.22558 91.1088C29.4269 103.481 58.2445 118.404 76.1607 127.306C80.9998 129.711 86.673 129.761 91.5501 127.435C123.74 112.08 146.633 98.4057 158.787 90.3102C163.462 87.1962 166.07 81.894 166.07 76.2765V54.7201C166.07 48.519 162.881 42.7359 157.579 39.5194C127.419 21.2213 102.2 8.99936 88.7181 3.1847C84.6992 1.45134 80.1751 1.41078 76.168 3.17107C57.6557 11.3033 28.3224 28.2942 9.58947 39.6509C4.26971 42.876 1.07031 48.6594 1.07031 54.8804Z" stroke="black" stroke-width="2"/>
</svg>
