<svg width="540" height="540" viewBox="0 0 540 540" fill="none" xmlns="http://www.w3.org/2000/svg">
<path d="M450.908 129.631C440.452 114.575 419.964 95.4645 412.032 88.9672L451.243 49.9836C433.548 34.9279 413.708 22.8743 406 18.7295V11H530V134H521.622C511.702 115.987 496.486 96.2486 490.119 88.6311L450.908 129.631Z" fill="black" stroke="black"/>
<path d="M539.5 270C539.5 418.841 418.841 539.5 270 539.5C121.159 539.5 0.5 418.841 0.5 270C0.5 121.159 121.159 0.5 270 0.5C326.842 0.5 379.573 18.0972 423.043 48.1411L396.177 76.6079C321.301 33.3646 254.834 34.6942 202.881 51.2877C150.869 67.9001 113.425 99.8021 96.637 117.529C63.0555 152.989 -0.5307 264.479 68.5643 387.245C123.834 485.447 225.855 507.332 270.001 506C312.229 507.07 411.631 484.813 471.925 387.263C532.082 289.935 492.793 185.773 465.426 145.476L493.017 118.646C522.354 161.79 539.5 213.892 539.5 270Z" fill="black" stroke="black"/>
</svg>
