<svg width="587" height="587" viewBox="0 0 587 587" fill="none" xmlns="http://www.w3.org/2000/svg">
<path d="M490.154 140.913C478.787 124.547 456.516 103.773 447.894 96.7103L490.518 54.3337C471.283 37.9675 449.716 24.8649 441.337 20.3593V11.957H576.13V145.663H567.022C556.239 126.082 539.699 104.625 532.777 96.345L490.154 140.913Z" fill="black" stroke="black"/>
<path d="M586.5 293.5C586.5 455.319 455.319 586.5 293.5 586.5C131.681 586.5 0.5 455.319 0.5 293.5C0.5 131.681 131.681 0.5 293.5 0.5C355.317 0.5 412.661 19.643 459.93 52.3242L430.667 83.3306C349.273 36.3125 277.024 37.7566 220.553 55.7931C164.023 73.8485 123.326 108.522 105.08 127.789C68.5823 166.327 -0.525922 287.5 74.5698 420.929C134.641 527.661 245.525 551.445 293.501 549.997C339.393 551.161 447.431 526.971 512.963 420.946C578.359 315.143 535.624 201.907 505.879 158.132L535.935 128.906C567.848 175.82 586.5 232.481 586.5 293.5Z" fill="black" stroke="black"/>
<path d="M128.863 267.268H71V275.459H84.0715L110.215 324.608H142.109L168.775 275.459H181.846V267.268H142.109V275.459H152.741L134.092 310.142L114.397 275.459H128.863V267.268Z" fill="black"/>
<path d="M315.699 267.442H263.064V275.633H276.31V315.545H262.193V324.957H342.888V298.291H334.348C333.511 311.397 323.193 315.255 318.139 315.545H302.802V275.633H315.699V267.442Z" fill="black"/>
<path d="M386.634 267.442H328.77V275.633H342.016L368.333 324.782H400.577L426.545 275.633H439.965V267.442H399.879V275.633H410.511L392.036 310.142L372.168 275.633H386.634V267.442Z" fill="black"/>
<path d="M128.863 267.268H71V275.459H84.0715L110.215 324.608H142.109L168.775 275.459H181.846V267.268H142.109V275.459H152.741L134.092 310.142L114.397 275.459H128.863V267.268Z" stroke="black"/>
<path d="M315.699 267.442H263.064V275.633H276.31V315.545H262.193V324.957H342.888V298.291H334.348C333.511 311.397 323.193 315.255 318.139 315.545H302.802V275.633H315.699V267.442Z" stroke="black"/>
<path d="M386.634 267.442H328.77V275.633H342.016L368.333 324.782H400.577L426.545 275.633H439.965V267.442H399.879V275.633H410.511L392.036 310.142L372.168 275.633H386.634V267.442Z" stroke="black"/>
<path d="M258.555 296.199C258.555 304.327 254.062 311.728 246.713 317.116C239.364 322.503 229.187 325.85 217.924 325.85C206.661 325.85 196.484 322.503 189.135 317.116C181.785 311.728 177.292 304.327 177.292 296.199C177.292 288.07 181.785 280.669 189.135 275.281C196.484 269.894 206.661 266.547 217.924 266.547C229.187 266.547 239.364 269.894 246.713 275.281C254.062 280.669 258.555 288.07 258.555 296.199Z" fill="black" stroke="black"/>
<path d="M516.5 295.674C516.5 303.951 512.002 311.483 504.654 316.964C497.305 322.444 487.129 325.849 475.868 325.849C464.607 325.849 454.431 322.444 447.082 316.964C439.734 311.483 435.236 303.951 435.236 295.674C435.236 287.398 439.734 279.866 447.082 274.385C454.431 268.905 464.607 265.5 475.868 265.5C487.129 265.5 497.305 268.905 504.654 274.385C512.002 279.866 516.5 287.398 516.5 295.674Z" fill="black" stroke="black"/>
<path d="M489.66 295.502C489.66 301.529 488.024 306.962 485.405 310.875C482.785 314.791 479.218 317.136 475.346 317.136C471.473 317.136 467.907 314.791 465.286 310.875C462.667 306.962 461.031 301.529 461.031 295.502C461.031 289.475 462.667 284.041 465.286 280.128C467.907 276.212 471.473 273.867 475.346 273.867C479.218 273.867 482.785 276.212 485.405 280.128C488.024 284.041 489.66 289.475 489.66 295.502Z" fill="white" stroke="black"/>
<path d="M231.715 296.024C231.715 301.904 230.08 307.205 227.463 311.023C224.845 314.842 221.278 317.135 217.4 317.135C213.522 317.135 209.956 314.842 207.337 311.023C204.721 307.205 203.086 301.904 203.086 296.024C203.086 290.144 204.721 284.842 207.337 281.025C209.956 277.205 213.522 274.912 217.4 274.912C221.278 274.912 224.845 277.205 227.463 281.025C230.08 284.842 231.715 290.144 231.715 296.024Z" fill="white" stroke="black"/>
</svg>
