<svg width="112" height="112" viewBox="0 0 112 112" fill="none" xmlns="http://www.w3.org/2000/svg">
<circle cx="55.9131" cy="55.9131" r="54.9131" stroke="black" stroke-width="2"/>
<circle cx="55.9133" cy="56.0442" r="33.3626" stroke="black" stroke-width="2"/>
<circle cx="55.7825" cy="56.0443" r="39.013" stroke="black" stroke-width="2"/>
<path d="M55.9133 19.9225C58.1059 19.9225 60.2529 20.1178 62.3377 20.4921V22.5214C60.8641 31.6677 62.5022 37.7774 63.6457 39.8408L63.8622 40.2314L64.2976 40.3309C65.8347 40.6822 67.2587 41.9608 67.7621 42.5611L67.9481 42.7829L68.224 42.871C69.4125 43.2507 70.9361 43.1643 72.4954 42.8794C74.0878 42.5884 75.8608 42.0617 77.6253 41.433C81.0426 40.2155 84.5241 38.5805 86.7781 37.3994H86.7806H86.7882H86.7958H86.8034H86.8111H86.8187H86.8264H86.834H86.8417H86.8494H86.8572H86.8577C89.1172 41.1414 90.7172 45.3264 91.4965 49.7934C91.0185 49.9986 90.5579 50.1688 90.19 50.2887C84.2164 51.8763 80.2462 53.4754 77.6993 54.8529C76.4247 55.5422 75.4881 56.186 74.8312 56.759C74.206 57.3042 73.7312 57.8733 73.5534 58.4381L73.4846 58.6565L73.5177 58.8832C73.6404 59.7215 73.4483 60.6225 73.1089 61.4504C72.7707 62.2752 72.3199 62.9453 72.034 63.2848L71.7989 63.5639V63.9289C71.7989 65.2026 72.3134 66.6643 73.031 68.1139C73.7614 69.5893 74.7607 71.1659 75.8521 72.7014C77.9874 75.7055 80.5325 78.632 82.275 80.4637C82.3031 80.5261 82.3307 80.5889 82.3577 80.6517C79.3796 83.8507 75.828 86.5086 71.8667 88.4618C71.8615 88.4558 71.8565 88.4499 71.8515 88.4441L71.8465 88.4382L71.8414 88.4324L70.459 86.8615C67.3553 81.5857 64.8254 78.3287 62.8928 76.3995C61.9223 75.4307 61.0809 74.7751 60.3717 74.3696C59.707 73.9896 59.0016 73.7389 58.3676 73.8508L58.2788 73.8665L58.1941 73.8978C57.6792 74.0885 56.8439 74.1529 55.9054 74.1156C54.9982 74.0795 54.1231 73.955 53.609 73.8542L53.4827 73.8295L53.3542 73.8375C52.7684 73.8741 52.2083 74.1645 51.7355 74.4852C51.2389 74.8221 50.7159 75.2783 50.1857 75.8033C49.1234 76.8552 47.9442 78.2718 46.7725 79.807C44.4797 82.811 42.1425 86.3658 40.6469 88.7915C36.6853 86.9415 33.1149 84.3937 30.0937 81.3063C30.1643 81.1678 30.2312 81.0436 30.2913 80.9375L31.2858 79.3837C34.7667 75.473 36.9682 72.2207 38.3062 69.7211C39.6284 67.2509 40.1591 65.4191 40.1591 64.3888V64.004L39.9012 63.7185C39.3099 63.0639 38.8825 62.1167 38.5994 61.1287C38.3193 60.1513 38.2064 59.2266 38.1874 58.702L38.1737 58.3256L37.915 58.0517C37.1378 57.2288 36.0148 56.4775 34.7737 55.8054C33.5196 55.1263 32.0835 54.4956 30.6308 53.9327C27.7843 52.8297 24.8123 51.9629 22.8898 51.488C22.399 51.2385 21.3763 50.7653 20.2344 50.3699C20.924 45.9992 22.3975 41.889 24.5064 38.1878H25.093L26.5951 38.8234C31.1379 40.9737 34.8205 42.1748 37.5961 42.7988C40.3411 43.416 42.2768 43.4864 43.2872 43.2952L43.6369 43.2291L43.8662 42.9568C44.2024 42.5576 44.8495 42.021 45.5902 41.4819C46.3107 40.9575 47.0455 40.4837 47.4952 40.2118L47.572 40.1653L47.6394 40.1059C48.033 39.7585 48.2962 39.276 48.4839 38.8016C48.6775 38.3124 48.8255 37.7417 48.9411 37.1317C49.1723 35.911 49.2935 34.4243 49.3454 32.8852C49.4489 29.8205 49.2816 26.4192 49.0947 24.2021V20.5651C51.3028 20.1433 53.5823 19.9225 55.9133 19.9225ZM64.3377 20.9101C73.1848 23.0236 80.7681 28.3921 85.7514 35.6793C83.5571 36.8237 80.2141 38.3876 76.9541 39.5491C75.244 40.1583 73.5825 40.6476 72.1359 40.9119C70.8171 41.1529 69.7843 41.1858 69.077 41.0309C68.3731 40.2759 66.9398 39.0474 65.2144 38.5087C64.3231 36.5461 62.9728 31.0672 64.3247 22.7625L64.3377 22.6827V22.6018V20.9101ZM90.7808 52.1997C91.0728 52.1052 91.4197 51.9819 91.7927 51.8344C91.953 53.2155 92.0354 54.6204 92.0354 56.0446C92.0354 64.8049 88.9169 72.8368 83.7295 79.0909C82.0364 77.3117 79.5527 74.4555 77.4823 71.5427C76.4246 70.0547 75.4898 68.5728 74.8234 67.2266C74.2311 66.0301 73.8928 65.023 73.8159 64.2527C74.1882 63.7497 74.62 63.0369 74.9594 62.209C75.3438 61.2713 75.6381 60.1162 75.5338 58.9134C75.5519 58.887 75.5741 58.8563 75.6013 58.8215C75.7135 58.6776 75.8882 58.4908 76.1457 58.2662C76.6612 57.8167 77.4654 57.2532 78.6508 56.6121C81.0203 55.3305 84.8388 53.7787 90.7296 52.2148L90.7554 52.2079L90.7808 52.1997ZM68.8945 88.1111L69.9676 89.3306C65.6476 91.1568 60.8984 92.1666 55.9133 92.1666C51.1742 92.1666 46.6483 91.254 42.5017 89.5949C43.9778 87.2163 46.1976 83.8568 48.3623 81.0204C49.5116 79.5147 50.6263 78.1816 51.5929 77.2244C52.0772 76.7449 52.5025 76.3816 52.8582 76.1403C53.1297 75.9562 53.3074 75.88 53.4031 75.8505C54.0105 75.9601 54.9004 76.0772 55.826 76.114C56.7578 76.151 57.848 76.1132 58.7269 75.8293C58.7972 75.8426 59.0037 75.8913 59.3791 76.1059C59.8874 76.3965 60.5892 76.926 61.4798 77.815C63.2592 79.5912 65.7063 82.7163 68.7828 87.9568L68.8313 88.0393L68.8945 88.1111ZM29.6441 78.2387L28.6685 79.763C23.1396 73.4173 19.7912 65.122 19.7912 56.0446C19.7912 54.8147 19.8527 53.5991 19.9727 52.4009C20.936 52.7589 21.7557 53.1501 22.0706 53.3158L22.1795 53.3731L22.2991 53.4024C24.1485 53.854 27.0988 54.709 29.9082 55.7976C31.3125 56.3418 32.6655 56.9382 33.8213 57.5641C34.8319 58.1113 35.6473 58.6576 36.2135 59.1809C36.2691 59.8488 36.4093 60.7463 36.6768 61.6798C36.9636 62.6804 37.4176 63.7966 38.1303 64.7162C38.0261 65.4121 37.6163 66.7718 36.5429 68.7773C35.2858 71.1258 33.1666 74.2702 29.74 78.1121L29.687 78.1716L29.6441 78.2387ZM25.6826 36.2657C30.5833 28.7904 38.182 23.2427 47.0947 21.0066V24.2444V24.2868L47.0983 24.3291C47.2822 26.4933 47.4472 29.8355 47.3466 32.8177C47.2961 34.3119 47.1799 35.6833 46.976 36.7594C46.874 37.2978 46.755 37.7353 46.6243 38.0657C46.516 38.3394 46.4191 38.4894 46.3571 38.5631C45.8629 38.8661 45.1334 39.3408 44.4133 39.8648C43.7847 40.3223 43.1084 40.8565 42.6085 41.3696C41.8432 41.4339 40.3238 41.3622 38.0348 40.8475C35.4179 40.2592 31.8687 39.1084 27.4322 37.0068L27.4131 36.9978L27.3937 36.9896L25.6855 36.2669L25.6826 36.2657Z" stroke="black" stroke-width="2"/>
<path d="M52.3653 41.1296C50.5781 41.1822 50.219 45.8821 50.2628 48.2255C44.2707 45.9653 42.8602 47.5904 42.904 48.6854L40.9987 54.1388C40.1051 55.7682 44.8751 58.0152 47.3718 58.9351C43.3771 63.8759 44.2619 65.9872 45.2036 66.4252C46.1016 67.1041 48.3179 68.7511 49.9999 69.9074C51.6819 71.0638 54.8181 67.3231 56.176 65.3082C59.2246 70.0914 61.695 70.1045 62.5492 69.5132C63.7756 68.6591 66.5176 66.7011 67.674 65.7025C68.8304 64.7038 66.3161 60.4681 64.9145 58.4752C70.9066 56.5303 71.441 54.5111 70.9591 53.7445L68.7252 47.8313C68.3047 45.9916 63.6004 47.0648 61.3008 47.8313C61.4059 42.3123 59.943 41.0639 59.1983 41.1296C57.6653 41.1077 54.1524 41.077 52.3653 41.1296Z" stroke="black" stroke-width="2"/>
<circle cx="55.9794" cy="55.9785" r="4.38763" stroke="black" stroke-width="2"/>
<circle cx="46.1897" cy="52.4963" r="1.16819" stroke="black" stroke-width="2"/>
<circle cx="55.9123" cy="45.5325" r="1.16819" stroke="black" stroke-width="2"/>
<circle cx="65.6369" cy="52.4963" r="1.16819" stroke="black" stroke-width="2"/>
<circle cx="62.2209" cy="64.4543" r="1.16819" stroke="black" stroke-width="2"/>
<circle cx="49.8694" cy="64.4543" r="1.16819" stroke="black" stroke-width="2"/>
<circle cx="46.2553" cy="52.4311" r="2.15373" stroke="black" stroke-width="2"/>
<circle cx="55.9799" cy="45.4662" r="2.15373" stroke="black" stroke-width="2"/>
<circle cx="65.7026" cy="52.4311" r="2.15373" stroke="black" stroke-width="2"/>
<circle cx="62.2865" cy="64.3891" r="2.15373" stroke="black" stroke-width="2"/>
<circle cx="49.933" cy="64.3891" r="2.15373" stroke="black" stroke-width="2"/>
<circle cx="55.9139" cy="55.9129" r="5.76739" stroke="black" stroke-width="2"/>
<path d="M46.8458 39.4873C47.8971 41.6336 50.039 46.3598 50.1967 48.0944C48.2694 46.8679 44.1651 43.9814 43.1665 42.2468M64.5856 39.4873C63.8409 40.4509 62.1546 43.4558 61.3661 47.7659C63.5562 46.3423 68.0415 43.1667 68.462 41.8526M74.5724 58.5411C73.1269 58.2126 69.1848 57.7527 64.9798 58.5411C66.4252 59.9647 70.0126 63.0483 72.7984 63.9945M58.738 74.7697C58.3219 72.3387 57.2269 67.0562 56.1756 65.3742C55.2339 67.2796 53.3767 71.8262 53.4818 74.7697M39.2243 64.3887C40.9983 63.4469 45.1113 61.051 47.3714 59.001C46.1231 58.6506 42.3386 58.1075 37.1875 58.7382" stroke="black" stroke-width="2"/>
</svg>
