<svg width="209" height="95" viewBox="0 0 209 95" fill="none" xmlns="http://www.w3.org/2000/svg">
<path d="M62.0973 26.5232H12.5C13.0564 28.7713 14.1388 30.8131 15.4726 32.6114C20.4417 39.3112 29.582 40.3808 37.9235 40.3799C42.7691 40.3793 48.9814 40.4486 56.6537 40.6453C64.6169 40.8495 70.48 43.2649 74.9959 47.0353C80.9411 51.999 90.9393 50.8252 88.6064 43.44C84.2228 29.5634 70.3192 26.3129 62.0973 26.5232Z" stroke="black" stroke-width="2"/>
<path d="M56.6537 47.7064H29.7381C30.6116 50.141 32.2982 52.673 34.1812 54.9659C38.3606 60.0549 44.9695 62.1292 51.5547 62.1292H54.9904C64.5603 62.1292 66.6326 76.6632 73.571 83.2542C84.2916 93.4382 93.7337 92.8827 106.192 93.4721C122.069 94.2233 136.04 84.8154 142.844 72.1953C144.448 69.2211 145.932 67.1356 147.263 65.6666C150.262 62.3564 155.072 62.1292 159.539 62.1292C164.209 62.1292 168.966 61.3005 172.012 57.7602C174.806 54.5119 177.434 50.2744 178.833 47.7064H155.546C151.754 47.7064 148.466 48.2655 145.637 49.1815C132.946 53.2917 129.088 70.2089 117.024 75.9023C99.8115 84.0253 79.1271 71.7983 76.4624 62.1292C73.6801 52.0334 63.1558 47.7064 56.6537 47.7064Z" stroke="black" stroke-width="2"/>
<path d="M143.903 26.5233H193.5C192.944 28.7714 191.861 30.8132 190.527 32.6115C185.558 39.3113 176.418 40.3808 168.077 40.3799C163.231 40.3794 157.019 40.4486 149.346 40.6454C141.383 40.8495 135.52 43.265 131.004 47.0354C125.059 51.9991 115.061 50.8252 117.394 43.4401C121.777 29.5635 135.681 26.3129 143.903 26.5233Z" stroke="black" stroke-width="2"/>
<path d="M62.0973 1.0094L2 1.00947C2.44847 2.82153 3.10421 4.49959 3.88988 6.02414C7.71102 13.4389 16.8795 14.956 25.2208 14.8952C34.0377 14.8309 45.9897 14.8581 56.6537 15.1316C64.6169 15.3357 70.4799 17.7511 74.9958 21.5214C80.9411 26.485 90.9393 25.3111 88.6064 17.926C84.2228 4.04947 70.3191 0.799041 62.0973 1.0094Z" stroke="black" stroke-width="2"/>
<path d="M147.381 1.01012L207.478 1.01019C207.029 2.82225 206.374 4.5003 205.588 6.02484C201.767 13.4396 192.598 14.9567 184.257 14.8959C175.44 14.8316 163.488 14.8588 152.824 15.1323C144.861 15.3364 138.998 17.7518 134.482 21.5221C128.537 26.4857 118.539 25.3118 120.871 17.9267C125.255 4.05017 139.159 0.79976 147.381 1.01012Z" stroke="black" stroke-width="2"/>
</svg>
