<svg width="204" height="101" viewBox="0 0 204 101" fill="none" xmlns="http://www.w3.org/2000/svg">
<path d="M98.6133 65.0742C74.3995 62.3487 58.0418 73.7048 53.3066 78.8832C56.9226 84.4067 66.5435 91.0379 70.9558 93.6631C73.3233 91.0739 81.3946 83.3063 95.9229 85.2482C108.622 86.9456 115.581 95.4611 117.661 99.8124C125.41 98.4315 135.311 92.764 139.292 90.1029C134.88 83.3063 122.827 67.7996 98.6133 65.0742Z" stroke="black" stroke-width="2"/>
<path d="M107.382 1.96183C51.0613 -4.33618 13.0138 21.9055 2 33.8717C10.4105 46.6357 32.7885 61.9591 43.0513 68.0253C48.5582 62.0422 67.3317 44.0928 101.124 48.5802C130.661 52.5024 146.848 72.1802 151.687 82.2352C169.71 79.0442 192.738 65.9478 202 59.7985C191.737 44.0929 163.702 8.25983 107.382 1.96183Z" stroke="black" stroke-width="2"/>
</svg>
