<svg width="140" height="138" viewBox="0 0 140 138" fill="none" xmlns="http://www.w3.org/2000/svg">
<path d="M41.6073 131.149V80.8534C41.6073 77.1176 35.6293 77.4067 31.8935 77.4067H29.1201C20.2515 77.4067 15.1461 81.1513 13.7019 83.0235C7.82283 56.3402 15.6709 38.6016 27.844 27.2735C49.3796 7.23272 86.0961 5.48221 108.864 24.111C129.011 40.5953 130.093 67.3861 126.598 83.0235C121.323 77.1516 112.282 77.4067 104.389 77.4067H103.025C99.5593 77.7131 98.5229 79.8322 98.438 80.8534V131.149C98.438 135.03 101.496 136 103.025 136C111.843 136 122.3 136.536 127.247 129.236C129.342 126.144 130.039 122.738 130.039 120.554C129.954 114.171 131.288 97.2953 137.302 80.8534C144.82 60.3011 128.382 -1.35585 67.7289 1.06958C7.07576 3.49501 -4.01001 64.6413 2.74339 80.8534C9.49679 97.0655 8.85968 107.023 10.0065 120.554C10.3 124.018 11.4015 126.781 12.9044 128.958C18.0127 136.358 28.5375 136 37.5298 136C41.1995 136 41.7772 132.766 41.6073 131.149Z" stroke="black" stroke-width="2"/>
</svg>
