<svg width="202" height="134" viewBox="0 0 202 134" fill="none" xmlns="http://www.w3.org/2000/svg">
<path d="M8.19139 27.9563C76.2071 -9.65936 159.028 0.144066 191.936 9.74774C195.42 10.7645 202.368 16.2014 200.763 24.96C198.779 35.7929 188.916 35.4395 182.18 33.949C107.608 17.4496 50.5629 34.7908 26.3631 48.0123C22.6842 50.0223 18.9995 52.3397 14.8122 52.5405C10.7297 52.7363 6.41191 51.3427 3.08092 45.9344C-1.94781 37.7695 3.08092 30.7826 8.19139 27.9563Z" stroke="black" stroke-width="2"/>
<path d="M26.4806 75.4097C84.6076 41.8301 149.451 47.4479 183.725 57.1146C186.706 57.9551 192.495 62.9042 191.355 69.6417C190.014 77.5664 181.314 78.9948 175.607 77.5664C112.994 61.897 64.8688 79.0633 43.9053 91.0508C40.2441 93.1443 36.5992 95.5746 32.4119 96.0782C29.0213 96.4858 25.4688 95.6921 22.7751 91.3889C18.4065 84.41 22.16 77.9056 26.4806 75.4097Z" stroke="black" stroke-width="2"/>
<path d="M45.6151 115.24C88.4494 89.0766 151.653 93.9079 179.675 101.811C182.111 102.498 186.716 105.844 185.784 111.352C184.687 117.831 177.635 118.726 172.909 117.831C111.461 106.191 79.5476 116.555 56.4871 129.225C53.8541 130.671 51.1931 132.19 48.2381 132.732C45.2196 133.285 41.9485 132.891 39.5954 129.132C36.0238 123.427 41.4281 117.798 45.6151 115.24Z" stroke="black" stroke-width="2"/>
</svg>
