<svg width="458" height="458" viewBox="0 0 458 458" fill="none" xmlns="http://www.w3.org/2000/svg">
<circle cx="228.85" cy="228.85" r="228.85" fill="#7EAE11"/>
<path d="M215.545 328.828C130.011 319.224 72.2285 359.24 55.502 377.487C68.275 396.951 102.26 420.317 117.846 429.568C126.21 420.444 154.721 393.073 206.041 399.916C250.899 405.897 275.482 435.903 282.831 451.236C310.202 446.37 345.176 426.4 359.241 417.023C343.655 393.073 301.079 338.432 215.545 328.828Z" fill="#133100"/>
<path d="M392.319 144.079C281.011 82.0384 145.475 98.2074 91.6204 114.047C85.9181 115.724 74.5488 124.691 77.1747 139.137C80.4225 157.004 96.5623 156.421 107.587 153.963C233.36 125.917 328.667 157.155 366.066 179.14C369.697 181.274 373.384 183.367 377.523 184.147C385.263 185.605 394.137 184.441 400.682 173.73C408.911 160.264 400.682 148.74 392.319 144.079Z" fill="#244E03"/>
<path d="M362.281 221.247C266.864 166.126 160.422 175.347 104.16 191.215C99.2676 192.595 89.7636 200.719 91.6355 211.779C93.8373 224.788 108.117 227.132 117.487 224.788C223.936 198.148 304.876 229.325 337.192 248.995C340.794 251.187 344.47 253.316 348.549 254.39C355.185 256.137 362.865 256.262 368.363 247.478C375.534 236.022 369.373 225.344 362.281 221.247Z" fill="#3C6906"/>
<path d="M331.108 286.633C260.78 243.676 157.008 251.609 111.001 264.585C107.001 265.713 99.4398 271.206 100.971 280.249C102.771 290.887 114.35 292.357 122.11 290.887C225.264 271.346 277.725 289.575 315.787 311.001C318.405 312.474 321.096 313.847 323.983 314.679C329.621 316.302 336.38 316.809 340.991 309.442C346.855 300.074 337.982 290.832 331.108 286.633Z" fill="#5F920F"/>
</svg>
