<svg width="557" height="557" viewBox="0 0 557 557" fill="none" xmlns="http://www.w3.org/2000/svg">
<circle cx="278.5" cy="278.5" r="278.5" fill="#1ED760"/>
<path d="M468.761 201.852C334.09 126.705 170.105 146.29 104.947 165.476C98.0476 167.507 84.2919 178.369 87.469 195.866C91.3985 217.507 110.926 216.801 124.264 213.824C277.73 179.564 393.706 218.338 438.136 244.996C441.75 247.164 445.444 249.206 449.559 250.118C459.217 252.257 470.591 251.346 478.88 237.768C488.837 221.456 478.88 207.498 468.761 201.852Z" fill="white"/>
<path d="M432.365 295.991C317.256 229.494 188.848 240.619 120.974 259.762C115.073 261.426 103.608 271.227 105.866 284.569C108.522 300.262 125.749 303.091 137.052 300.262C266.733 267.808 365.032 306.484 403.232 330.162C406.817 332.383 410.486 334.442 414.535 335.623C422.814 338.035 432.717 338.795 439.703 327.635C448.354 313.815 440.921 300.934 432.365 295.991Z" fill="white"/>
<path d="M394.475 374.867C309.651 323.056 184.488 332.623 128.998 348.274C124.173 349.635 115.053 356.26 116.9 367.168C119.071 379.998 133.037 381.771 142.396 379.998C267.548 356.29 330.833 378.676 376.807 404.716C379.421 406.196 382.119 407.54 384.989 408.427C391.956 410.58 400.588 411.656 406.396 402.378C413.468 391.079 402.766 379.932 394.475 374.867Z" fill="white"/>
</svg>
