<svg width="144" height="203" viewBox="0 0 144 203" fill="none" xmlns="http://www.w3.org/2000/svg">
<path d="M64.7586 57.2248C64.216 54.2433 68.8283 52.3686 71.2023 51.804C141.405 82.3561 149.404 2 139.51 10.4701C131.595 17.2461 83.4387 7.64671 60.3498 2C54.9235 3.11289 51.8713 7.08204 51.8713 10.4701C51.8713 50.9005 53.4464 132.505 51.8713 138.537C49.8364 146.33 43.3874 147.334 39.6622 147.685C3.71313 151.073 1 169.03 1 176.822C1 184.615 5.40884 205.282 33.5576 201.555C57.5088 198.384 64.3365 183.598 64.4195 170.046C64.6456 133.117 65.3013 60.2063 64.7586 57.2248Z" stroke="black" stroke-width="2"/>
</svg>
