<svg width="132" height="146" viewBox="0 0 132 146" fill="none" xmlns="http://www.w3.org/2000/svg">
<path d="M53.3812 23.9285C51.805 32.4098 55.2264 35.8749 57.134 36.5004C55.9144 36.5004 47.5644 39.6902 44.9375 41.9419C43.5302 39.5026 41.2784 32.5787 44.6559 25.5234C48.0335 18.4682 45.3752 13.7647 43.6239 12.2948C51.73 14.5465 54.8824 18.5808 53.3812 23.9285Z" stroke="black" stroke-width="2"/>
<path d="M63.0447 23.9285C60.0424 28.8822 60.793 33.8734 61.5436 35.656C69.7011 34.9076 74.6498 36.4912 77.0035 37.2444L77.0238 37.2509C75.7202 36.1235 75.3304 34.2835 75.3807 32.383C75.484 28.4856 78.0016 24.7492 78.5226 20.8854C79.2294 15.6433 78.2728 10.3638 75.2286 6.03814C71.9051 1.31576 67.8569 0.652879 65.7654 1.13029C70.9255 6.29037 66.7975 17.7364 63.0447 23.9285Z" stroke="black" stroke-width="2"/>
<path d="M92.035 30.7773C86.7811 31.5279 82.4967 36.344 80.9643 38.752C85.4676 40.7222 89.971 44.6001 92.035 46.6329C91.8331 46.1402 91.738 45.6453 91.7339 45.152C91.6565 35.6896 110.078 30.1996 104.419 22.615C103.481 27.2122 98.6024 29.8391 92.035 30.7773Z" stroke="black" stroke-width="2"/>
<path d="M5.06404 34.4363C7.27577 31.5927 9.85396 30.1029 12.5083 29.517C23.7737 27.0304 31.0823 47.1192 42.2167 44.0998C37.4319 48.134 34.6173 52.9188 32.8347 56.2963C29.0819 57.2721 24.7662 52.0119 23.0774 49.2598C16.9979 37.326 8.53537 34.405 5.06404 34.4363Z" stroke="black" stroke-width="2"/>
<path d="M28.8634 64.0308C29.6229 63.8172 30.1668 63.4837 30.4892 63.1452C29.0819 68.6805 29.4572 74.1221 29.6448 75.6232C23.8655 76.9742 18.8868 72.8712 17.073 70.6508C12.7948 63.6706 5.90841 63.1764 3 63.8019C3.62553 62.9537 4.29836 62.2466 5.00067 61.6612C11.5355 56.2139 20.6735 66.3335 28.8634 64.0308Z" stroke="black" stroke-width="2"/>
<path d="M4.21966 108.366C2.93368 104.614 2.80681 101.408 3.4141 98.7034C5.96554 87.3426 28.3426 91.4942 30.3954 80.0327C31.7089 86.131 34.5235 90.5406 36.9628 93.9181C33.2236 103.266 17.3567 96.2218 9.16349 102.073C6.38669 104.056 4.82046 106.579 4.21966 108.366Z" stroke="black" stroke-width="2"/>
<path d="M34.0544 106.959C40.5842 104.482 41.0283 99.9225 40.6217 98.0461C43.9242 101.424 49.3157 104.27 51.411 105.176C47.5704 113.789 33.6633 112.136 28.7617 120.192C28.174 121.158 27.8278 122.081 27.6746 122.815C25.6106 119.531 25.892 110.055 34.0544 106.959Z" stroke="black" stroke-width="2"/>
<path d="M55.5391 117.561C57.4905 111.556 55.6642 107.616 54.5071 106.302C60.7367 108.404 67.2978 108.179 69.7997 107.897C73.1772 110.899 70.7066 118.217 69.0491 121.501C62.2941 132.009 64.3582 140.828 66.2345 143.924C50.5666 139.796 53.0998 125.066 55.5391 117.561Z" stroke="black" stroke-width="2"/>
<path d="M78.7126 115.121C78.7126 110.43 76.5235 107.96 74.9598 106.959C81.4334 105.083 84.5294 102.925 86.4996 101.611C92.7295 107.081 85.2527 117.295 86.2939 125.52C86.6509 128.341 87.7954 130.112 88.7513 130.883C79.1441 129.307 78.0558 120.281 78.7126 115.121Z" stroke="black" stroke-width="2"/>
<path d="M98.5086 103.769C95.6564 99.566 90.6277 99.5473 88.5637 100.016C93.7425 95.8132 97.5078 89.79 98.6024 87.3507C100.76 86.6001 106.183 87.5571 110.987 97.3894C115.79 107.222 123.934 109.555 127.405 109.492C117.273 121.126 102.074 109.023 98.5086 103.769Z" stroke="black" stroke-width="2"/>
<path d="M129 80.1266C128.581 80.8013 128.11 81.382 127.599 81.8793C120.852 88.4415 109.476 75.7641 101.136 80.1266C102.168 75.6232 102.168 71.6828 101.886 68.1176C110.499 66.6619 115.906 77.2115 124.268 79.7384C126.268 80.3428 127.953 80.3509 129 80.1266Z" stroke="black" stroke-width="2"/>
<path d="M109.11 44.6627C98.152 44.6627 95.1623 48.3529 95.0372 50.198C99.2591 56.2025 100.917 62.1132 101.323 64.271C101.296 64.0602 101.298 63.8521 101.326 63.6467C102.985 51.3863 128.018 54.453 128.921 42.1139C129.121 39.3792 128.34 36.999 127.405 35.4683C125.873 38.5331 120.068 44.6627 109.11 44.6627Z" stroke="black" stroke-width="2"/>
<circle cx="65.7663" cy="71.7761" r="35.4021" stroke="black" stroke-width="2"/>
</svg>
