<svg width="80" height="125" viewBox="0 0 80 125" fill="none" xmlns="http://www.w3.org/2000/svg">
<path d="M55.8557 68.6375C54.0234 69.6182 48.6031 71.1233 41.58 69.2975C40.055 72.41 37.5366 74.3832 35.6879 75.2451M55.8557 68.6375C57.5 70.9941 58.4405 72.9869 59.9288 74.2106C64.8877 78.2878 70.888 75.9733 73.8485 73.7416C80.8717 66.1764 77.1175 59.4579 74.3626 57.0444C78.064 54.7653 78.3566 50.0542 78.0403 47.9836C76.8065 40.1968 70.329 39.0151 67.2445 39.3976C68.9212 28.1289 61.616 22.5421 57.7538 21.1573C58.1334 16.5042 56.3302 13.3098 55.3811 12.2943C51.8696 6.7866 44.7172 7.01873 41.58 7.82325C40.9473 4.9085 37.9103 -0.46204 30.8239 1.37386C23.7374 3.20976 23.3631 9.41911 24.0617 12.2943C13.3055 13.0856 10 20.0524 9.39062 21.1573C4.67689 29.7037 7.42657 37.3269 9.39062 40.0702C3.72782 45.1031 3.30018 53.246 3.79421 56.6883C2.13881 58.3293 0.722063 60.8692 1.04668 64.4038C1.19168 66.9361 3.33237 72.0402 10.7351 72.1985C10.7483 74.7044 12.0085 79.7162 16.9437 79.7162C18.5386 79.7953 22.0845 79.1306 23.5081 75.8386C26.0258 76.8146 31.9865 78.0623 35.6879 75.2451M55.8557 68.6375C55.0115 70.6059 51.4974 70.3461 47.5 77C43.5026 83.6539 43.8533 86.9835 44.5 92C46.5626 108 46.444 120.628 46.5626 122.725C45.574 124.071 42.6477 124.071 39.6423 123.952C37.238 123.857 36.2678 123.095 36.0833 122.725C36.0833 112.786 36.7687 101.386 37.1115 96.9277C37.5227 90.8503 35.6879 80.4838 35.6879 75.2451" stroke="black" stroke-width="2"/>
</svg>
