<svg width="477" height="473" viewBox="0 0 477 473" fill="none" xmlns="http://www.w3.org/2000/svg">
<path d="M242.533 300.801C90.7062 259.346 50.0765 308.608 27.0293 341.256C38.6242 370.213 68.8469 401.426 82.1526 412.939C118.981 360.182 177.905 363.021 229.227 363.021L313.575 367.043C401.725 361.601 443.067 326.824 460.65 306.005C474.716 289.35 476.886 258.374 475.856 245.914C403.388 323.276 292.429 314.424 242.533 300.801Z" fill="#006DB0"/>
<path d="M290.29 412.939C191.449 412.939 170.54 441.329 161.273 458.362C207.605 476.342 266.055 480.128 330.207 455.287C385.651 433.818 422.555 390.07 432.85 371.065C393.884 406.268 321.574 413.649 290.29 412.939Z" fill="#006DB0"/>
<path d="M241.975 0.362926C46.6828 2.25366 -8.43631 173.759 1.77974 249.664C75.4302 180.401 145.754 215.103 249.815 246.818C362.667 281.213 444.87 232.586 473.142 201.749C445.013 39.1221 307.31 -0.269618 241.975 0.362926Z" fill="#FAA61A"/>
<path d="M289.349 204.824L313.398 129.236L249.107 81.6082H328.876L347.884 25.792L357.313 30.7154L365.844 35.6387L380.784 81.6082H419.722C422.416 84.6358 429.241 92.8393 434.988 101.433L396.024 129.236L418.406 204.824L353.878 159.566L289.349 204.824Z" fill="white"/>
</svg>
