<svg width="80" height="119" viewBox="0 0 80 119" fill="none" xmlns="http://www.w3.org/2000/svg">
<path d="M43.4857 4.56071C42.5113 1.6346 38.7182 -1.72051 35.771 4.56071C33.5751 12.8515 25.0535 31.4851 11.77 47.134C-10.0624 72.8542 2.14505 117.713 40.7182 117.713C79.2915 117.713 87.8835 73.7114 68.6296 47.134C58.2834 32.8524 50.1473 24.5663 43.4857 4.56071Z" stroke="black" stroke-width="2"/>
<path d="M36.7909 86.6122C34.4703 85.7177 32.9797 83.9325 32.0897 81.9938C30.5073 78.5468 29.0087 72.6804 25.4033 73.8578C22.4054 74.8368 21.865 77.9833 22.2197 81.117C23.2263 90.011 29.1327 94.1776 35.2278 95.6474C39.2503 96.6174 45.4312 94.0359 44.2618 90.0668C43.3628 87.0158 39.7589 87.7561 36.7909 86.6122Z" stroke="black" stroke-width="2"/>
<path d="M61.9566 54.0015C48.0131 35.715 41.289 23.7145 39.6699 20C33.9553 30.5044 37.0983 26.286 17.6689 54.0015C-1.76056 81.717 19.3832 107.147 40.527 107.147C62.8794 107.147 79.3859 76.8597 61.9566 54.0015Z" stroke="black" stroke-width="2"/>
</svg>
