<svg width="81" height="119" viewBox="0 0 81 119" fill="none" xmlns="http://www.w3.org/2000/svg">
<path d="M44.0784 4.84782C43.1041 1.92171 39.311 -1.4334 36.3638 4.84782C34.1679 13.1386 25.6463 31.7722 12.3628 47.4212C-9.46959 73.1413 2.73783 118 41.311 118C79.8843 118 88.4763 73.9985 69.2224 47.4212C58.8761 33.1395 50.7401 24.8534 44.0784 4.84782Z" stroke="black" stroke-width="2"/>
<path d="M37.3837 86.8993C35.063 86.0048 33.5725 84.2196 32.6825 82.2809C31.1001 78.8339 29.6015 72.9675 25.996 74.1449C22.9981 75.1239 22.4578 78.2704 22.8125 81.4041C23.8191 90.2981 29.7255 94.4647 35.8206 95.9345C39.8431 96.9045 46.024 94.323 44.8546 90.3539C43.9556 87.3029 40.3516 88.0432 37.3837 86.8993Z" stroke="black" stroke-width="2"/>
</svg>
