<svg width="159" height="99" viewBox="0 0 159 99" fill="none" xmlns="http://www.w3.org/2000/svg">
<path d="M84.0613 32.9537C123.008 -7.15389 144.342 0.60234 157.295 6.44307C158.983 17.407 155.381 32.4246 153.393 38.3536C132.59 28.8404 115.079 40.3474 99.3802 49.6122L74.3064 66.0712C46.359 80.3174 27.4255 77.1272 18.2834 73.9236C10.9697 71.3607 4.70573 62.2633 2.76803 58.2605C38.9213 68.877 71.2618 46.1347 84.0613 32.9537Z" stroke="black" stroke-width="2"/>
<path d="M89.7266 75.9275C119.961 58.0842 131.489 63.0064 137.403 66.5517C126.481 80.4237 109.287 92.1349 85.1727 96.1062C64.3318 99.5384 45.1344 92.7986 38.549 88.8353C56.8327 92.5849 80.2856 81.7925 89.7266 75.9275Z" stroke="black" stroke-width="2"/>
</svg>
