<svg width="80" height="126" viewBox="0 0 80 126" fill="none" xmlns="http://www.w3.org/2000/svg">
<path d="M52 69.2975C50.1678 70.2783 46 72.1985 41.58 69.2975C40 75 37.5 76.5 37.5 76.5M52 69.2975C53.6443 71.6542 56.2655 74.0215 57.7538 75.2451C59.8158 76.9405 62.4339 77.3518 65.002 77.0934C71.331 76.4566 77.5777 71.6351 77.8574 65.2803C78.0244 61.4847 76.014 58.4911 74.3626 57.0444C78.064 54.7653 78.3566 50.0542 78.0403 47.9836C76.8065 40.1968 70.329 39.0151 67.2445 39.3976C68.9212 28.1289 61.616 22.5421 57.7538 21.1573C58.1334 16.5042 56.3302 13.3098 55.3811 12.2943C51.8696 6.7866 44.7172 7.01873 41.58 7.82325C40.9473 4.9085 37.9103 -0.46204 30.8239 1.37386C23.7374 3.20976 23.3631 9.41911 24.0617 12.2943C13.3055 13.0856 10 20.0524 9.39062 21.1573C4.67689 29.7037 7.42657 37.3269 9.39062 40.0702C3.72782 45.1031 3.30018 53.246 3.79421 56.6883C2.13881 58.3293 0.722063 60.8692 1.04668 64.4038C1.19168 66.9361 3.33237 72.0402 10.7351 72.1985C10.7483 74.7044 12.0085 79.7162 16.9437 79.7162C18.5386 79.7953 22.0845 79.1306 23.5081 75.8386C26.0258 76.8146 30 79.7162 37.5 76.5M52 69.2975C51.1559 71.2659 50.3577 73.7838 49.3577 76.5C48.3577 79.2162 47.211 83.0316 47.8577 88.0481C49.9203 104.048 51.3814 120.676 51.5 122.773C50.5114 124.119 47.0336 124.095 44.0282 123.976C41.6238 123.881 39.9257 123.143 39.7411 122.773C39.7411 112.834 42.2655 101.434 42.6082 96.9759C41.58 82.5 38.5 79.7162 37.5 76.5" stroke="black" stroke-width="2"/>
</svg>
