<svg width="189" height="117" viewBox="0 0 189 117" fill="none" xmlns="http://www.w3.org/2000/svg">
<path d="M99.2018 38.5655C145.732 -9.35101 171.219 -0.0846513 186.694 6.89327C188.711 19.9918 184.408 37.9333 182.032 45.0167C157.179 33.6513 136.258 47.3988 117.503 58.4674L87.5477 78.1309C54.159 95.1509 31.5392 91.3395 20.6171 87.5121C11.8795 84.4503 4.39583 73.5816 2.08088 68.7995C45.2731 81.483 83.9104 54.3127 99.2018 38.5655Z" stroke="black" stroke-width="2"/>
<path d="M105.97 89.9062C142.091 68.5888 155.864 74.4694 162.929 78.705C149.881 95.2779 129.339 109.269 100.53 114.014C75.6311 118.114 52.6959 110.062 44.8283 105.327C66.6718 109.807 94.691 96.9131 105.97 89.9062Z" stroke="black" stroke-width="2"/>
</svg>
